<svg width="1000" height="1000" viewBox="0 0 1000 1000" fill="none" xmlns="http://www.w3.org/2000/svg"><path fill="#fff" d="M0 0h1000v1000H0z"/><svg xmlns="http://www.w3.org/2000/svg" xmlns:xlink="http://www.w3.org/1999/xlink" x="210" y="380" width="500" height="500" viewBox="0 0 204.8 192.4" xml:space="preserve"><style>.st1{fill:#f5841f}.st2{fill:#e27625}.st4{fill:#2f343b}</style><path class="st1" d="m167.4 96.1 6.9-8.1-3-2.2 4.8-4.4-3.7-2.8 4.8-3.6-3.1-2.4 5-24.4-7.6-22.6m0 0-48.8 18.1H82L33.2 25.6l.3.2-.3-.2-7.6 22.6 5.1 24.4-3.2 2.4 4.9 3.6-3.7 2.8 4.8 4.4-3 2.2 6.9 8.1-10.5 32.4 9.7 33.1 34.1-9.4v-.1.1l6.6 5.4 13.5 9.2h23.1l13.5-9.2 6.6-5.4 34.2 9.4 9.8-33.1-10.6-32.4m-96.7 56" id="MM_Head_background__x28_Do_not_edit_x29_"/><g id="Logos"><path class="st2" d="m171.5 25.6-59.9 44.1 11.1-26zm-138.3 0 59.4 44.5L82 43.7zM150 127.9l-16 24.2 34.2 9.4 9.8-33.1zm-123.1.5 9.7 33.1 34.1-9.4-15.9-24.2z"/><path class="st2" d="m68.9 86.9-9.5 14.3 33.8 1.5-1.1-36.2zm67 0-23.6-20.8-.7 36.6 33.8-1.5zm-65.2 65.2 20.5-9.8-17.7-13.6zm42.9-9.8 20.4 9.8-2.8-23.4z"/><path d="m134 152.1-20.4-9.8 1.7 13.2-.2 5.6zm-63.3 0 19 9-.1-5.6 1.6-13.2z" style="fill:#d7c1b3"/><path class="st4" d="M90 119.9 73.1 115l12-5.5zm24.7 0 5-10.4 12 5.5z"/><path d="m70.7 152.1 3-24.2-18.9.5zm60.4-24.2 2.9 24.2 16-23.7zm14.3-26.7-33.8 1.5 3.1 17.2 5-10.4 12 5.5zM73.1 115l12-5.5 4.9 10.4 3.2-17.2-33.8-1.5z" style="fill:#cc6228"/><path class="st2" d="m59.4 101.2 14.1 27.5-.4-13.7zm72.3 13.8-.5 13.7 14.2-27.5zm-38.5-12.3L90 119.9l4 20.4.9-26.8zm18.4 0-1.7 10.7.8 26.9 4-20.4z"/><path class="st1" d="m114.7 119.9-4 20.4 2.9 2 17.6-13.6.5-13.7zM73.1 115l.4 13.7 17.7 13.6 2.8-2-4-20.4z"/><path style="fill:#c0ad9e" d="m115.1 161.1.2-5.6-1.6-1.3H91l-1.4 1.3.1 5.6-19-9 6.6 5.4 13.5 9.3h23.1l13.5-9.3 6.6-5.4z"/><path class="st4" d="m113.6 142.3-2.9-2H94l-2.8 2-1.6 13.2 1.4-1.3h22.7l1.6 1.3z"/><path d="m174.1 72.6 5-24.4-7.6-22.6-57.9 42.6 22.3 18.7 31.5 9.2 6.9-8.1-3-2.2 4.8-4.3-3.7-2.9 4.8-3.6zM25.6 48.2l5.1 24.4-3.2 2.4 4.8 3.7-3.7 2.8 4.8 4.3-3 2.2 7 8.1 31.5-9.2 22.3-18.7-58-42.6z" style="fill:#763e1a"/><path class="st1" d="m167.4 96.1-31.5-9.2 9.5 14.3-14.2 27.5 18.8-.3h28zm-98.5-9.2-31.5 9.2-10.5 32.3h27.9l18.7.3-14.1-27.5zm42.7 15.8 2-34.5 9.1-24.5H82l9.2 24.5 2 34.5.8 10.8v26.8h16.7l.1-26.8z"/></g></svg><path d="M257.778 155.556h484.444v688.889h-71.111V528.889h-.697c-7.86-87.212-81.156-155.556-170.414-155.556s-162.554 68.344-170.414 155.556h-.697v315.556h-71.111z" fill="#855DCD"/><path d="m128.889 253.333 28.889 97.778h24.444v395.556c-12.273 0-22.222 9.949-22.222 22.222v26.667h-4.444c-12.273 0-22.223 9.949-22.223 22.222v26.667h248.889v-26.667c0-12.273-9.949-22.222-22.222-22.222h-4.444v-26.667c0-12.273-9.95-22.222-22.223-22.222h-26.666V253.333zm546.667 493.334c-12.273 0-22.223 9.949-22.223 22.222v26.667h-4.444c-12.273 0-22.222 9.949-22.222 22.222v26.667h248.889v-26.667c0-12.273-9.95-22.222-22.223-22.222h-4.444v-26.667c0-12.273-9.949-22.222-22.222-22.222V351.111h24.444L880 253.333H702.222v493.334z" fill="#855DCD"/></svg>